<svg xmlns="http://www.w3.org/2000/svg" width="261" height="116" viewBox="0 0 26050 11620" preserveAspectRatio="xMidYMid" style="clip-path:url(#presentation_clip_path);stroke-linejoin:round;stroke-width:30"><style>.a{fill:rgb(255,255,255);}.b{fill:rgb(0,0,0);}.c{fill:rgb(253,128,184);}.d{fill:rgb(92,185,240);}</style><defs class="ClipPathGroup"><clipPath clipPathUnits="userSpaceOnUse"><rect width="26050" height="11620"/></clipPath></defs><defs class="TextShapeIndex"/><defs class="EmbeddedBulletChars"><path d="M0.3-0.6L0.6-0.3 0.3 0 0-0.3 0.3-0.6Z"/><path d="M0-0.6L0.6-0.6 0.6 0 0 0 0-0.6Z"/><path d="M0.1 0L0.3-0.4 0.1-0.7 0.7-0.4 0.1 0ZM1358 739L309 1346 659 739 1358 739Z"/><path d="M1-0.4L0.6 0 0.4 0 0.6-0.3 0.1-0.3 0.1-0.5 0.6-0.5 0.4-0.7 0.6-0.7 1-0.4Z"/><path d="M0 0C0 0 0 0 0 0L0.2-0.3C0.1-0.4 0.1-0.5 0.1-0.5 0.1-0.5 0.1-0.5 0.1-0.5 0.1-0.5 0.1-0.5 0.1-0.5 0.2-0.5 0.2-0.5 0.2-0.5L0.2-0.5 0.2-0.4 0.4-0.5 0.4-0.5 0.4-0.5C0.4-0.5 0.4-0.5 0.5-0.5 0.4-0.5 0.4-0.4 0.4-0.4 0.4-0.4 0.3-0.3 0.3-0.3L0.4-0.1C0.4-0.1 0.4-0.1 0.3-0.1L0.4-0.1C0.4 0 0.3 0 0.3 0 0.3 0 0.3-0.1 0.2-0.2L0.1 0C0.1 0.1 0.1 0.1 0 0.1 0 0.1 0 0.1 0 0 0 0 0 0 0 0 0 0 0 0 0 0Z"/><path d="M0.1 0C0.1 0 0.1 0 0-0.1 0-0.1 0-0.2 0-0.2 0-0.3 0-0.3 0-0.3 0.1-0.4 0.1-0.4 0.1-0.4 0.1-0.4 0.2-0.4 0.2-0.3L0.2-0.2C0.2-0.2 0.2-0.2 0.2-0.2L0.6-0.5C0.6-0.6 0.6-0.6 0.6-0.6 0.6-0.6 0.6-0.5 0.6-0.5L0.6-0.5C0.6-0.5 0.6-0.4 0.6-0.4L0.2 0C0.2 0 0.2 0 0.1 0Z"/><path d="M0.4 0C0.3 0 0.2 0 0.2-0.1 0.1-0.1 0.1-0.2 0.1-0.3 0.1-0.4 0.1-0.4 0.2-0.5 0.2-0.6 0.3-0.6 0.4-0.6 0.5-0.6 0.6-0.6 0.6-0.5 0.7-0.4 0.7-0.4 0.7-0.3 0.7-0.2 0.7-0.1 0.6-0.1 0.6 0 0.5 0 0.4 0Z"/><path d="M0.2-0.2C0.1-0.2 0.1-0.2 0.1-0.3 0-0.3 0-0.3 0-0.4 0-0.4 0-0.4 0.1-0.4 0.1-0.5 0.1-0.5 0.2-0.5 0.2-0.5 0.2-0.5 0.3-0.4 0.3-0.4 0.3-0.4 0.3-0.4 0.3-0.3 0.3-0.3 0.3-0.3 0.2-0.2 0.2-0.2 0.2-0.2Z"/><path d="M0-0.2L0.6-0.2 0.6-0.3 0-0.3 0-0.2Z"/></defs><defs class="TextEmbeddedBitmaps"/><g class="SlideGroup"><g class="Slide" clip-path="url(#presentation_clip_path)"><g class="Page"><g class="Group"><g class="com.sun.star.drawing.PolyPolygonShape"><path d="M6649 190L6676 158 6706 130 6738 106 6773 86 6810 69 6848 56 6888 46 6928 39 6969 36 7011 36 7052 40 7093 46 7133 56 7172 68 7210 83 7246 101 7270 115 7292 132 7312 150 7331 170 7347 191 7362 214 7375 238 7386 263 7395 289 7402 316 7408 343 7411 370 7413 398 7414 426 7412 453 7409 480 7389 595 7365 710 7342 824 7322 940 7532 1091 7574 1067 7618 1045 7662 1025 7708 1008 7755 993 7803 982 7850 973 7899 967 7947 964 7996 965 8044 969 8091 977 8139 988 8185 1003 8230 1023 8275 1046 8301 1060 8326 1075 8350 1092 8373 1110 8394 1129 8414 1150 8432 1172 8450 1195 8481 1243 8509 1295 8532 1348 8551 1403 8557 1425 8566 1446 8577 1466 8589 1484 8603 1501 8618 1517 8651 1546 8723 1601 8759 1629 8792 1658 8815 1680 8838 1703 8858 1727 8878 1752 8913 1805 8944 1860 8972 1917 8996 1976 9039 2096 9249 2115 9302 2122 9353 2132 9404 2145 9455 2161 9501 2179 9546 2201 9590 2224 9633 2250 9715 2305 9797 2363 9914 2292 10038 2231 10166 2180 10232 2160 10298 2143 10366 2129 10433 2119 10501 2113 10570 2112 10638 2114 10707 2122 10775 2134 10843 2151 10884 2162 10925 2177 11008 2208 11049 2219 11070 2223 11092 2225 11113 2226 11134 2224 11156 2220 11178 2213 11354 2166 11533 2131 11714 2108 11897 2096 12080 2095 12263 2105 12444 2123 12625 2151 12688 2163 12750 2180 12871 2220 12992 2264 13052 2284 13114 2301 13132 2300 13151 2297 13169 2294 13187 2289 13222 2278 13257 2265 13327 2236 13361 2222 13397 2210 13606 2150 13821 2112 14038 2093 14256 2096 14472 2118 14686 2160 14895 2222 15098 2303 15144 2326 15189 2351 15275 2407 15360 2464 15404 2491 15449 2516 15473 2510 15498 2503 15545 2484 15590 2462 15635 2436 15725 2384 15770 2359 15817 2338 15968 2273 16123 2217 16282 2169 16443 2131 16606 2105 16771 2092 16936 2094 17101 2112 17195 2128 17290 2148 17383 2172 17475 2200 17565 2233 17654 2270 17741 2313 17825 2360 17912 2411 17935 2422 17958 2432 17982 2441 17994 2444 18007 2447 18263 2286 18329 2249 18396 2215 18466 2186 18539 2163 18614 2139 18691 2120 18769 2106 18847 2097 18925 2092 19004 2093 19082 2097 19160 2107 19238 2120 19314 2139 19389 2161 19463 2188 19535 2220 19606 2255 19674 2295 19740 2339 19867 2268 20001 2209 20140 2163 20282 2131 20427 2113 20499 2109 20572 2110 20645 2113 20718 2121 20790 2133 20862 2148 20903 2160 20944 2174 21024 2207 21064 2223 21104 2237 21145 2250 21187 2259 21233 2248 21279 2235 21370 2206 21461 2176 21507 2163 21554 2153 21720 2126 21888 2107 22056 2097 22225 2094 22393 2100 22561 2114 22729 2136 22895 2166 22942 2177 22988 2190 23080 2221 23126 2236 23172 2250 23219 2260 23267 2267 23317 2256 23366 2242 23464 2209 23562 2178 23612 2164 23662 2154 23837 2126 24013 2106 24191 2095 24368 2094 24545 2102 24722 2119 24897 2146 25071 2183 25194 2218 25315 2265 25431 2321 25541 2388 25644 2466 25693 2508 25738 2553 25782 2600 25822 2650 25860 2702 25895 2757 25942 2845 25980 2937 26009 3031 26031 3127 26044 3225 26050 3323 26048 3422 26039 3521 26022 3619 25999 3716 25969 3811 25933 3904 25890 3993 25842 4080 25788 4162 25728 4240 25716 4255 25704 4269 25677 4298 25650 4327 25624 4357 25612 4372 25602 4388 25593 4404 25586 4421 25581 4439 25579 4458 25579 4477 25583 4498 25593 4572 25599 4646 25600 4794 25587 4942 25559 5088 25518 5230 25462 5368 25429 5434 25393 5499 25354 5562 25311 5623 25235 5719 25156 5811 24987 5987 24636 6325 23355 7584 23162 7774 23061 7866 22955 7951 22844 8028 22786 8062 22727 8094 22666 8122 22603 8146 22538 8167 22471 8183 22384 8200 22297 8210 22210 8211 22124 8206 22038 8193 21954 8173 21871 8148 21791 8116 21712 8078 21636 8035 21563 7987 21494 7934 21427 7877 21365 7816 21307 7751 21254 7683 21079 7833 20988 7904 20894 7971 20796 8032 20695 8086 20590 8132 20480 8168 20400 8186 20320 8199 20239 8207 20158 8209 20077 8206 19996 8198 19917 8185 19838 8167 19760 8145 19684 8117 19610 8085 19538 8048 19469 8006 19402 7960 19339 7909 19279 7854 19145 7929 19008 7997 18867 8057 18723 8108 18575 8149 18426 8179 18274 8197 18121 8201 17932 8194 17743 8171 17558 8130 17377 8074 17203 8000 17118 7957 17037 7910 16957 7858 16881 7803 16807 7743 16737 7679 16585 7751 16431 7817 16352 7846 16273 7874 16192 7898 16111 7919 15943 8224 15898 8298 15850 8371 15799 8441 15744 8508 15643 8618 15539 8723 15434 8829 15332 8937 15384 9016 15406 9057 15427 9099 15446 9142 15462 9186 15476 9231 15487 9276 15495 9322 15501 9368 15504 9415 15504 9462 15501 9508 15494 9555 15485 9601 15472 9647 15461 9683 15448 9718 15432 9751 15415 9783 15396 9814 15376 9844 15331 9902 15281 9956 15229 10008 15120 10106 15104 10225 15093 10284 15078 10343 15059 10400 15048 10428 15035 10455 15021 10481 15006 10507 14988 10531 14969 10555 14896 10637 14821 10716 14663 10867 14503 11016 14348 11169 14201 11313 14125 11385 14046 11452 14005 11483 13962 11511 13918 11537 13873 11560 13826 11579 13777 11594 13727 11605 13674 11611 13640 11616 13606 11619 13572 11620 13539 11619 13473 11611 13407 11598 13146 11533 13085 11544 13024 11558 12903 11587 12842 11598 12780 11604 12749 11605 12718 11604 12687 11601 12656 11595 12628 11592 12601 11587 12574 11581 12548 11573 12497 11553 12447 11530 12255 11425 12243 11425 12232 11426 12220 11427 12209 11429 12187 11435 12165 11442 12078 11475 11931 11529 11779 11568 11625 11594 11469 11606 11313 11605 11157 11590 11003 11563 10852 11522 10821 11513 10789 11506 10758 11501 10726 11498 10695 11498 10663 11501 10632 11506 10616 11510 10601 11515 10446 11554 10288 11579 10130 11592 9970 11594 9811 11585 9652 11567 9495 11540 9340 11506 9319 11502 9299 11499 9279 11499 9259 11499 9239 11501 9219 11503 9179 11511 9100 11531 9060 11541 9021 11549 8974 11558 8927 11565 8880 11568 8833 11570 8739 11565 8646 11552 8554 11531 8464 11504 8376 11470 8290 11431 8198 11479 8102 11519 8003 11551 7902 11573 7799 11586 7748 11589 7696 11589 7645 11586 7593 11580 7542 11572 7491 11560 7339 11516 7320 11512 7301 11508 7282 11506 7262 11506 7243 11507 7224 11510 7205 11515 7186 11522 7123 11545 7059 11565 6994 11581 6928 11593 6861 11602 6794 11608 6727 11610 6660 11608 6593 11603 6527 11594 6461 11581 6397 11564 6333 11544 6270 11520 6209 11492 6150 11460 6137 11451 6123 11444 6110 11438 6096 11434 6082 11430 6068 11428 6053 11427 6039 11427 6025 11428 6010 11430 5996 11432 5981 11436 5953 11445 5925 11456 5754 11515 5577 11558 5397 11585 5216 11593 5125 11591 5034 11584 4944 11573 4855 11556 4767 11535 4680 11509 4595 11478 4511 11442 4446 11411 4384 11376 4264 11298 4152 11208 4050 11109 3957 11000 3874 10883 3803 10758 3744 10628 3707 10530 3676 10431 3629 10228 3601 10022 3593 9813 3603 9605 3631 9398 3676 9194 3737 8995 3780 8884 3830 8776 3887 8672 3949 8571 4017 8473 4089 8379 4165 8287 4244 8198 4149 8178 4054 8155 3961 8128 3869 8096 3779 8059 3693 8017 3609 7968 3530 7911 3429 7832 3337 7745 3252 7651 3175 7550 3104 7445 3040 7335 2982 7221 2929 7106 2746 7307 2554 7500 2353 7683 2144 7857 2073 7910 1999 7958 1922 8001 1842 8039 1761 8072 1677 8100 1592 8123 1505 8140 1439 8149 1373 8154 1306 8156 1240 8154 1173 8148 1107 8139 1042 8125 977 8109 914 8089 851 8065 791 8038 731 8008 674 7975 618 7938 565 7898 514 7855 467 7812 422 7767 340 7670 268 7566 206 7455 154 7339 112 7219 81 7096 60 6971 45 6813 42 6654 51 6496 69 6338 95 6182 130 6026 170 5873 217 5721 917 3417 1088 2866 1136 2730 1189 2597 1251 2466 1321 2340 1392 2225 1470 2115 1553 2009 1641 1907 1825 1710 2014 1518 2154 1385 2301 1259 2602 1016 2778 882 2870 818 2963 758 3059 703 3159 653 3261 611 3367 576 3551 534 3738 509 3927 501 4115 509 4303 534 4487 575 4667 633 4841 708 4925 752 5006 801 5084 854 5159 912 5231 973 5300 1038 5367 1105 5432 1175 5767 921 5934 794 6106 673 6129 658 6153 644 6177 632 6202 621 6253 604 6306 591 6359 582 6414 577 6523 572 6566 374 6580 325 6598 278 6609 255 6621 233 6634 211 6649 190Z" class="a"/></g><g class="com.sun.star.drawing.PolyPolygonShape"><path d="M3222 1190L3345 1134 3471 1087 3601 1049 3733 1021 3866 1005 4000 1001 4068 1005 4134 1012 4201 1023 4267 1038 4340 1054 4412 1074 4483 1099 4551 1127 4618 1160 4683 1196 4746 1235 4807 1278 4865 1324 4921 1374 5026 1480 5120 1596 5201 1721 5267 1837 5322 1957 5370 2080 5409 2207 5441 2335 5468 2465 5489 2596 5506 2728 5622 2682 5741 2647 5862 2623 5986 2611 6110 2610 6233 2621 6294 2631 6355 2645 6415 2661 6474 2681 6505 2690 6536 2701 6594 2728 6649 2759 6703 2794 6805 2871 6905 2950 6938 2926 6969 2900 7029 2846 7088 2791 7118 2764 7149 2739 7194 2709 7242 2683 7292 2661 7343 2644 7396 2631 7450 2622 7504 2618 7559 2618 7613 2622 7666 2632 7719 2645 7769 2664 7818 2687 7864 2715 7907 2748 7947 2786 7966 2805 7983 2824 7999 2845 8013 2866 8039 2911 8062 2958 8082 3006 8100 3055 8134 3154 8282 3035 8432 2921 8587 2813 8746 2712 8780 2693 8815 2676 8851 2660 8888 2647 8926 2636 8964 2627 9002 2620 9041 2616 9079 2614 9118 2614 9157 2617 9195 2622 9233 2630 9271 2641 9307 2654 9343 2671 9374 2686 9403 2703 9431 2722 9457 2743 9481 2766 9504 2790 9525 2815 9545 2842 9581 2899 9611 2960 9637 3022 9657 3086 9989 2841 10074 2783 10162 2730 10253 2684 10301 2663 10349 2646 10395 2632 10441 2622 10487 2616 10534 2613 10581 2614 10627 2618 10674 2625 10719 2635 10764 2649 10807 2666 10849 2686 10890 2709 10929 2736 10965 2765 11000 2797 11031 2833 11084 2800 11139 2770 11252 2719 11369 2678 11489 2648 11611 2626 11735 2612 11859 2604 11982 2602 12133 2603 12286 2611 12438 2629 12588 2658 12734 2701 12804 2728 12873 2759 12940 2794 13005 2834 13067 2878 13126 2928 13180 2884 13237 2843 13295 2806 13355 2771 13417 2741 13481 2713 13611 2667 13746 2633 13883 2611 14022 2600 14160 2601 14250 2602 14340 2608 14429 2619 14518 2635 14606 2656 14692 2682 14777 2714 14859 2750 14939 2791 15016 2837 15090 2888 15159 2944 15225 3005 15286 3070 15343 3141 15394 3217 15630 3033 15752 2945 15878 2863 16008 2789 16143 2725 16283 2673 16355 2652 16429 2635 16539 2613 16650 2599 16763 2593 16877 2594 16990 2603 17102 2621 17213 2645 17322 2678 17427 2718 17529 2766 17627 2822 17719 2886 17805 2957 17885 3036 17958 3123 18022 3218 18085 3123 18154 3032 18229 2945 18310 2865 18398 2792 18444 2759 18492 2729 18542 2701 18593 2676 18646 2655 18701 2637 18801 2614 18853 2607 18905 2602 18957 2599 19009 2600 19061 2603 19113 2610 19163 2619 19213 2632 19262 2649 19309 2669 19355 2692 19398 2720 19439 2751 19478 2787 19497 2804 19514 2821 19547 2859 19575 2900 19601 2942 19623 2987 19644 3032 19679 3126 19720 3055 19765 2986 19815 2920 19869 2859 19929 2804 19961 2778 19994 2754 20028 2732 20064 2712 20101 2694 20139 2678 20202 2656 20266 2637 20333 2623 20400 2614 20469 2609 20537 2608 20605 2612 20672 2622 20738 2637 20802 2657 20863 2682 20921 2714 20976 2752 21027 2796 21073 2846 21114 2903 21172 2856 21232 2814 21294 2777 21358 2744 21425 2715 21492 2690 21632 2651 21776 2625 21922 2609 22068 2602 22213 2602 22348 2605 22485 2612 22622 2626 22757 2649 22889 2683 22953 2705 23016 2731 23077 2760 23136 2793 23193 2831 23247 2874 23322 2822 23399 2777 23478 2738 23560 2705 23643 2677 23728 2654 23902 2622 24079 2605 24258 2601 24612 2614 24717 2626 24822 2643 24927 2665 25030 2694 25129 2732 25177 2755 25223 2780 25268 2809 25310 2841 25350 2876 25388 2915 25418 2949 25444 2985 25467 3023 25487 3062 25504 3103 25518 3144 25529 3187 25537 3231 25543 3275 25546 3320 25546 3364 25544 3409 25539 3453 25532 3498 25523 3541 25512 3584 25497 3639 25477 3692 25455 3742 25429 3792 25400 3839 25368 3885 25299 3973 25223 4056 25144 4137 24984 4294 25005 4332 25024 4371 25040 4410 25054 4451 25066 4492 25075 4533 25088 4618 25094 4704 25093 4790 25087 4876 25075 4961 25064 5011 25049 5059 25031 5106 25011 5152 24963 5239 24907 5323 24846 5402 24780 5479 24644 5627 24525 5745 24401 5859 24152 6087 24107 6127 24058 6163 24008 6197 23955 6227 23901 6254 23846 6279 23789 6301 23732 6321 23702 6399 23666 6475 23627 6548 23583 6618 23487 6752 23379 6878 23264 6998 23144 7114 22900 7340 22759 7468 22684 7530 22606 7587 22565 7612 22523 7635 22481 7655 22437 7672 22391 7686 22345 7695 22297 7701 22247 7702 22201 7703 22156 7700 22112 7694 22068 7684 22025 7671 21983 7654 21942 7635 21903 7613 21865 7588 21828 7561 21794 7532 21760 7501 21729 7468 21700 7434 21672 7398 21647 7361 21621 7317 21597 7272 21577 7226 21559 7179 21544 7132 21532 7083 21513 6984 21502 6884 21498 6783 21497 6682 21500 6582 21372 6767 21235 6946 21090 7119 20938 7285 20803 7411 20731 7470 20657 7526 20580 7577 20499 7622 20415 7660 20372 7676 20327 7690 20245 7702 20162 7707 20120 7706 20079 7702 20037 7697 19996 7690 19956 7680 19916 7669 19877 7655 19839 7639 19802 7620 19766 7599 19731 7576 19698 7551 19646 7501 19600 7447 19558 7389 19520 7327 19488 7263 19460 7197 19437 7128 19418 7059 19303 7182 19178 7296 19043 7399 18900 7490 18749 7566 18671 7598 18592 7626 18511 7650 18429 7670 18345 7685 18260 7695 18119 7700 17978 7694 17837 7677 17698 7648 17563 7607 17432 7553 17369 7522 17307 7487 17247 7449 17189 7408 17136 7364 17086 7316 17040 7265 16997 7211 16958 7154 16921 7096 16887 7036 16854 6976 16737 7075 16613 7164 16482 7242 16345 7310 16203 7368 16058 7417 15909 7456 15759 7487 15653 7704 15542 7918 15480 8022 15411 8121 15335 8214 15294 8258 15250 8301 14895 8650 14714 8821 14525 8984 14550 9139 14635 9161 14721 9181 14806 9200 14892 9216 14919 9244 14944 9274 14956 9290 14966 9306 14976 9323 14984 9341 14991 9359 14997 9377 15002 9395 15004 9414 15005 9433 15004 9453 15001 9473 14995 9493 14983 9524 14967 9553 14948 9580 14927 9604 14904 9626 14879 9647 14826 9687 14718 9762 14692 9783 14668 9804 14645 9828 14625 9853 14618 9938 14614 10024 14610 10110 14606 10153 14601 10196 14594 10210 14586 10223 14569 10248 14550 10272 14529 10295 14440 10382 14116 10693 13955 10849 13789 11001 13766 11021 13741 11040 13714 11056 13687 11070 13659 11083 13630 11094 13600 11104 13570 11113 13524 11097 13479 11078 13435 11058 13392 11036 13349 11012 13308 10987 13268 10960 13228 10932 13183 10952 13138 10974 13050 11020 12962 11065 12917 11086 12870 11104 12839 11107 12809 11105 12779 11099 12750 11089 12723 11075 12697 11057 12674 11037 12653 11014 12634 10989 12619 10963 12608 10934 12600 10905 12596 10875 12597 10845 12600 10830 12603 10814 12608 10800 12614 10785 12639 10732 12666 10681 12727 10582 12854 10390 12834 10315 12762 10287 12534 10529 12415 10648 12291 10760 12160 10863 12091 10909 12020 10951 11946 10989 11870 11021 11791 11048 11708 11070 11645 11085 11582 11097 11518 11104 11454 11108 11390 11109 11326 11106 11199 11091 11073 11065 10950 11028 10830 10982 10713 10928 10593 10980 10532 11006 10471 11030 10409 11050 10346 11066 10281 11078 10248 11081 10215 11083 9960 11088 9831 11083 9703 11070 9578 11048 9516 11033 9455 11015 9396 10993 9337 10967 9280 10938 9225 10905 9195 10932 9163 10958 9129 10981 9094 11001 9058 11019 9020 11035 8981 11047 8942 11057 8902 11065 8861 11069 8821 11070 8780 11068 8740 11063 8700 11055 8661 11044 8622 11029 8595 11017 8569 11004 8545 10989 8521 10972 8499 10954 8478 10934 8439 10892 8402 10846 8369 10798 8307 10700 8235 10798 8196 10845 8156 10891 8112 10933 8065 10972 8041 10989 8015 11005 7988 11020 7960 11034 7937 11045 7914 11055 7890 11063 7865 11069 7816 11079 7766 11084 7715 11085 7664 11083 7563 11076 7521 11056 7482 11033 7444 11008 7409 10979 7375 10948 7343 10916 7312 10881 7283 10846 7246 10888 7206 10927 7163 10963 7117 10995 7069 11023 7019 11048 6967 11069 6914 11085 6859 11098 6804 11107 6749 11111 6693 11110 6637 11106 6582 11096 6528 11082 6475 11063 6447 11052 6420 11038 6394 11023 6370 11007 6347 10988 6326 10968 6305 10947 6286 10925 6250 10877 6219 10826 6192 10773 6168 10719 6116 10766 6062 10811 6005 10852 5946 10890 5885 10925 5822 10957 5758 10985 5692 11010 5557 11050 5419 11076 5279 11089 5138 11088 5034 11078 4930 11060 4829 11031 4731 10993 4684 10971 4638 10946 4593 10918 4550 10889 4509 10856 4469 10822 4432 10785 4396 10746 4366 10711 4338 10674 4287 10598 4243 10517 4206 10433 4174 10347 4148 10258 4127 10169 4109 10079 4096 9897 4098 9714 4116 9531 4151 9352 4176 9263 4204 9177 4237 9091 4275 9008 4317 8928 4365 8849 4416 8774 4473 8702 4668 8474 4874 8256 5089 8048 5317 7854 5416 7773 5520 7697 5627 7628 5739 7565 5855 7511 5974 7465 6096 7429 6222 7403 6200 7357 6172 7292 6150 7227 6132 7160 6118 7091 6075 6816 5958 6965 5829 7106 5690 7237 5541 7357 5382 7463 5215 7552 5127 7591 5038 7624 4947 7653 4854 7677 4748 7697 4640 7710 4531 7714 4423 7710 4315 7697 4209 7677 4104 7648 4002 7611 3942 7581 3884 7548 3829 7511 3777 7470 3728 7426 3681 7380 3637 7330 3596 7278 3557 7224 3521 7168 3458 7051 3405 6928 3363 6803 3337 6693 3315 6581 3299 6469 3289 6356 3285 6243 3286 6131 3294 6018 3308 5906 3296 5885 3288 5873 3282 5864 3218 5885 3152 5904 3087 5923 3020 5940 2945 6124 2864 6306 2819 6395 2771 6481 2718 6566 2660 6647 2572 6756 2480 6861 2286 7063 2081 7254 1869 7438 1829 7470 1786 7500 1742 7528 1696 7554 1649 7577 1600 7598 1551 7615 1501 7630 1450 7642 1398 7650 1346 7655 1295 7656 1243 7653 1191 7647 1140 7636 1089 7621 1037 7601 987 7578 940 7550 895 7520 852 7486 812 7449 774 7409 739 7366 707 7322 678 7275 652 7227 628 7177 608 7126 591 7073 578 7020 567 6967 554 6882 545 6797 542 6712 543 6627 558 6458 585 6290 624 6124 669 5958 769 5633 1473 3311 1592 2945 1626 2856 1663 2767 1704 2681 1750 2597 1817 2490 1891 2388 1970 2292 2054 2198 2409 1843 2794 1487 2894 1404 2998 1325 3107 1253 3222 1190Z" class="b"/></g><g class="com.sun.star.drawing.PolyPolygonShape"><path d="M10012 981L10086 989 10227 1304 10293 1464 10321 1545 10345 1628 10331 1622 10318 1614 10305 1606 10293 1597 10282 1588 10271 1578 10250 1556 10232 1533 10215 1508 10183 1457 9904 1457 9872 1508 9854 1533 9835 1557 9814 1578 9803 1589 9791 1598 9779 1607 9766 1615 9752 1622 9738 1628 9764 1544 9794 1462 9863 1300 10012 981ZM11003 983L11024 975 11045 968 11065 964 11086 962 11107 961 11128 962 11149 964 11170 968 11211 979 11252 992 11330 1024 11334 1113 11259 1088 11220 1076 11181 1065 11142 1057 11122 1055 11103 1054 11083 1055 11064 1057 11044 1062 11024 1068 11008 1075 10993 1084 10978 1093 10965 1104 10953 1116 10942 1128 10923 1156 10908 1186 10897 1219 10890 1253 10887 1287 10889 1322 10894 1356 10904 1390 10918 1421 10935 1450 10957 1476 10970 1487 10983 1498 10998 1507 11013 1515 11035 1525 11057 1532 11079 1536 11101 1537 11123 1536 11145 1534 11167 1529 11189 1523 11362 1464 11357 1482 11350 1498 11342 1513 11333 1527 11322 1540 11311 1553 11287 1574 11260 1592 11230 1606 11198 1616 11165 1623 11131 1626 11096 1625 11062 1621 11028 1614 10995 1604 10964 1590 10936 1573 10909 1553 10879 1523 10853 1489 10833 1452 10817 1412 10807 1370 10801 1327 10800 1284 10804 1240 10813 1198 10826 1157 10844 1119 10867 1083 10894 1051 10926 1023 10962 1000 10982 991 11003 983ZM11674 986L11752 986 11875 1255 11936 1390 11991 1527 11995 1534 11997 1542 11999 1549 11999 1556 11999 1563 11998 1570 11996 1577 11994 1584 11987 1597 11980 1611 11966 1637 11911 1546 11882 1501 11867 1479 11850 1458 11815 1455 11779 1453 11709 1452 11567 1457 11538 1509 11523 1534 11506 1558 11497 1569 11487 1579 11476 1588 11464 1597 11452 1604 11438 1611 11424 1615 11408 1619 11435 1537 11465 1457 11533 1299 11674 986ZM12134 988L12343 986 12369 988 12394 991 12418 997 12442 1004 12464 1015 12485 1028 12505 1044 12522 1065 12533 1085 12540 1106 12544 1127 12546 1147 12545 1167 12541 1186 12535 1206 12527 1224 12518 1242 12506 1260 12494 1277 12480 1293 12465 1308 12450 1323 12417 1349 12513 1493 12522 1511 12530 1530 12536 1550 12539 1569 12540 1589 12538 1600 12537 1610 12534 1620 12530 1630 12519 1652 12463 1576 12410 1499 12359 1420 12309 1341 12214 1334 12203 1629 12130 1569 12121 1496 12116 1424 12115 1351 12117 1279 12134 988ZM12582 1054L12586 1045 12590 1037 12594 1029 12599 1022 12604 1015 12610 1008 12616 1003 12622 997 12628 992 12635 988 12642 984 12650 981 12658 978 12666 976 12675 974 12684 973 12743 967 12802 964 12861 964 12921 967 12980 973 13039 981 13155 1002 13142 1013 13128 1023 13114 1031 13100 1038 13085 1043 13070 1048 13038 1055 13006 1060 12974 1063 12909 1068 12909 1601 12816 1603 12815 1063 12582 1054ZM13333 993L13375 977 13417 968 13460 965 13503 968 13544 977 13585 990 13623 1009 13659 1031 13692 1058 13721 1089 13746 1123 13767 1159 13783 1199 13792 1240 13796 1283 13793 1328 13788 1369 13778 1407 13763 1443 13744 1477 13720 1508 13694 1535 13664 1560 13631 1581 13597 1598 13560 1612 13523 1621 13484 1626 13445 1627 13406 1622 13368 1613 13330 1598 13307 1588 13285 1576 13265 1563 13247 1548 13229 1532 13214 1514 13187 1476 13166 1434 13152 1389 13143 1342 13140 1294 13143 1246 13152 1200 13168 1155 13189 1113 13216 1075 13232 1057 13249 1041 13268 1027 13288 1014 13310 1003 13333 993ZM14075 992L14114 977 14154 968 14194 965 14234 967 14273 974 14312 985 14349 1000 14384 1020 14416 1044 14445 1071 14471 1101 14493 1134 14510 1170 14523 1208 14530 1248 14531 1291 14532 1314 14532 1337 14529 1360 14524 1382 14511 1424 14491 1463 14466 1498 14436 1530 14402 1558 14365 1582 14325 1601 14283 1614 14240 1623 14196 1626 14152 1623 14109 1614 14067 1598 14027 1575 14007 1562 13989 1548 13957 1517 13930 1481 13909 1442 13893 1401 13883 1357 13878 1313 13879 1268 13885 1224 13897 1180 13914 1139 13936 1101 13963 1067 13995 1036 14013 1023 14033 1011 14053 1001 14075 992ZM14638 984L14719 985 15068 1464 15068 1209 15070 1082 15076 955 15153 1003 15160 1061 15164 1118 15167 1235 15162 1468 15158 1516 15156 1540 15154 1552 15152 1564 15148 1575 15144 1585 15139 1594 15132 1603 15128 1607 15124 1610 15119 1613 15114 1616 15108 1619 15102 1621 15089 1624 15037 1566 14989 1506 14897 1382 14808 1255 14716 1131 14715 1246 14717 1362 14717 1420 14716 1477 14711 1535 14703 1592 14689 1602 14672 1615 14641 1639 14626 1475 14620 1312 14624 1148 14638 984ZM15733 982L15751 983 15773 983 15813 983 16164 1465 16170 994 16240 975 16253 1137 16257 1301 16253 1464 16241 1627 16200 1606 16180 1594 16160 1582 16141 1569 16124 1554 16116 1546 16108 1537 16101 1528 16094 1518 15957 1326 15888 1231 15817 1137 15812 1603 15771 1611 15749 1615 15730 1618 15725 1300 15727 1141 15733 982ZM16431 980L16533 972 16635 969 16738 971 16840 977 16838 1062 16514 1064 16513 1240 16801 1243 16799 1330 16512 1335 16514 1522 16611 1520 16660 1521 16709 1524 16757 1529 16804 1539 16828 1546 16851 1554 16874 1563 16896 1574 16868 1584 16839 1592 16782 1605 16723 1613 16665 1616 16606 1617 16547 1615 16429 1607 16421 1450 16419 1293 16422 1137 16431 980ZM16946 982L17010 971 17075 965 17140 963 17205 965 17270 969 17335 977 17464 999 17451 1010 17437 1020 17423 1029 17409 1036 17394 1042 17379 1047 17364 1052 17348 1055 17316 1060 17284 1063 17219 1069 17215 1604 17124 1599 17124 1063 16900 1055 16946 982ZM17518 955L17546 977 17570 1002 17591 1029 17608 1058 17623 1088 17636 1120 17657 1187 17689 1327 17708 1395 17719 1428 17732 1459 17894 983 17972 984 18131 1459 18145 1428 18156 1395 18176 1327 18209 1189 18230 1122 18242 1090 18257 1059 18275 1030 18295 1003 18319 978 18346 955 18336 1038 18322 1120 18303 1201 18282 1282 18183 1599 18087 1603 17935 1145 17846 1405 17822 1470 17795 1533 17765 1594 17729 1653 17687 1572 17650 1488 17618 1402 17590 1315 17567 1226 17547 1136 17531 1045 17518 955ZM18624 983L18664 971 18704 966 18745 966 18785 971 18823 982 18861 997 18897 1017 18930 1040 18960 1067 18987 1097 19010 1131 19028 1166 19042 1204 19051 1244 19053 1285 19050 1327 19046 1371 19035 1413 19018 1452 18996 1487 18969 1519 18939 1547 18904 1572 18867 1592 18828 1607 18787 1618 18744 1625 18702 1626 18660 1621 18619 1611 18579 1596 18542 1574 18522 1560 18504 1546 18487 1529 18472 1512 18446 1474 18426 1433 18412 1389 18404 1344 18401 1297 18404 1251 18412 1205 18426 1161 18446 1120 18471 1082 18501 1048 18518 1034 18537 1020 18556 1008 18578 998 18600 990 18624 983ZM19158 989L19214 989 19274 986 19336 984 19367 985 19397 987 19427 991 19454 997 19481 1007 19505 1019 19516 1027 19526 1036 19536 1046 19545 1057 19553 1069 19561 1082 19567 1097 19572 1113 19579 1132 19582 1150 19582 1168 19580 1185 19576 1201 19569 1216 19561 1231 19551 1245 19540 1259 19528 1272 19502 1298 19450 1347 19473 1381 19494 1416 19514 1451 19532 1488 19549 1525 19564 1563 19576 1602 19586 1642 19565 1628 19545 1613 19526 1597 19508 1580 19474 1543 19443 1504 19415 1463 19388 1421 19337 1335 19239 1344 19239 1605 19158 1605 19158 989ZM19728 996L19799 964 19824 1247 19870 1209 19914 1169 20004 1090 20050 1052 20099 1019 20124 1004 20150 990 20178 978 20206 968 20194 992 20182 1014 20152 1057 20119 1098 20084 1136 20046 1172 20007 1207 19928 1276 19999 1345 20071 1412 20106 1447 20140 1484 20170 1522 20197 1563 20192 1603 20190 1624 20187 1642 20092 1560 20000 1475 19911 1386 19824 1295 19822 1386 19815 1476 19810 1521 19803 1566 19795 1610 19784 1654 19765 1616 19751 1577 19739 1538 19731 1498 19726 1457 19723 1416 19722 1332 19730 1162 19732 1078 19728 996ZM20880 990L20917 977 20954 969 20992 965 21030 966 21067 972 21103 981 21138 994 21172 1011 21203 1032 21232 1055 21259 1082 21281 1111 21301 1144 21316 1178 21327 1215 21332 1254 21337 1297 21335 1338 21327 1379 21314 1418 21296 1455 21273 1489 21247 1520 21217 1549 21184 1573 21148 1594 21110 1610 21071 1621 21030 1627 20988 1627 20947 1621 20905 1609 20879 1601 20855 1592 20832 1580 20811 1567 20791 1551 20773 1535 20756 1516 20742 1497 20717 1454 20698 1407 20687 1359 20681 1308 20683 1258 20691 1208 20705 1160 20727 1115 20740 1095 20755 1075 20771 1057 20790 1040 20810 1024 20832 1011 20855 999 20880 990ZM21442 988L21653 986 21680 988 21705 992 21730 997 21754 1006 21777 1016 21798 1030 21818 1047 21836 1068 21846 1089 21852 1109 21856 1130 21857 1150 21855 1170 21851 1189 21845 1208 21837 1226 21828 1244 21817 1261 21804 1278 21791 1294 21776 1309 21761 1323 21729 1350 21774 1418 21796 1454 21816 1490 21824 1509 21831 1527 21837 1547 21842 1566 21844 1586 21845 1607 21844 1628 21840 1649 21809 1613 21779 1577 21722 1501 21669 1423 21618 1343 21527 1332 21523 1472 21519 1542 21515 1576 21510 1611 21460 1631 21442 1552 21431 1472 21426 1392 21425 1311 21442 988ZM22036 1003L22071 983 22090 972 22106 962 22115 1278 22116 1357 22113 1436 22107 1514 22096 1592 22031 1640 22020 1321 22021 1162 22026 1082 22036 1003ZM22269 1173L22276 1152 22285 1133 22295 1114 22307 1097 22335 1065 22367 1037 22402 1014 22441 995 22482 981 22524 972 22567 968 22610 969 22651 976 22691 988 22729 1006 22746 1018 22763 1030 22778 1045 22793 1061 22806 1078 22818 1097 22778 1092 22737 1085 22655 1071 22615 1066 22574 1063 22533 1064 22513 1066 22492 1069 22476 1074 22460 1081 22445 1088 22431 1097 22418 1107 22406 1118 22384 1143 22366 1170 22352 1200 22342 1231 22335 1264 22333 1297 22334 1330 22340 1363 22350 1394 22365 1423 22383 1450 22394 1462 22406 1474 22420 1484 22434 1494 22450 1504 22467 1513 22484 1520 22502 1525 22519 1529 22538 1532 22575 1534 22612 1534 22650 1531 22724 1526 22728 1364 22546 1332 22559 1317 22573 1304 22588 1294 22603 1286 22620 1280 22637 1275 22655 1273 22673 1271 22821 1271 22804 1588 22705 1607 22655 1616 22604 1621 22579 1623 22554 1622 22529 1621 22504 1617 22480 1612 22456 1605 22432 1595 22409 1583 22383 1568 22359 1550 22338 1530 22319 1508 22302 1484 22288 1459 22275 1432 22266 1405 22258 1377 22253 1347 22250 1318 22249 1288 22251 1259 22255 1230 22261 1201 22269 1173ZM22962 982L23045 983 23042 1606 22966 1619 22962 982ZM23226 1001L23271 973 23326 1027 23377 1085 23424 1146 23469 1209 23556 1336 23601 1399 23648 1460 23654 984 23740 990 23738 1073 23739 1156 23744 1324 23743 1407 23737 1490 23731 1531 23723 1571 23713 1612 23700 1652 23645 1593 23593 1530 23495 1400 23401 1267 23353 1202 23302 1138 23296 1604 23213 1605 23212 1454 23209 1302 23208 1227 23210 1151 23216 1076 23226 1001ZM24131 959L24162 991 24190 1025 24216 1061 24240 1099 24281 1177 24317 1259 24382 1426 24417 1508 24455 1588 24379 1606 24297 1456 24003 1454 23929 1604 23842 1590 23982 1272 24055 1115 24131 959ZM24545 977L24625 993 24625 1517 24708 1518 24749 1520 24791 1525 24831 1532 24871 1542 24891 1549 24910 1556 24929 1565 24948 1575 24899 1588 24849 1600 24798 1609 24748 1615 24697 1617 24646 1615 24621 1611 24596 1607 24571 1601 24546 1594 24537 1517 24532 1440 24530 1363 24531 1286 24545 977ZM13404 1062L13425 1058 13447 1056 13469 1056 13491 1057 13513 1061 13535 1065 13556 1072 13577 1080 13597 1090 13615 1102 13632 1115 13648 1130 13662 1146 13674 1164 13683 1184 13690 1205 13695 1225 13699 1245 13702 1266 13704 1287 13704 1308 13703 1329 13700 1350 13696 1370 13691 1390 13684 1409 13675 1428 13664 1445 13652 1461 13638 1476 13622 1490 13604 1501 13583 1512 13560 1521 13536 1527 13511 1532 13486 1535 13461 1536 13436 1535 13411 1531 13387 1526 13364 1518 13342 1508 13321 1496 13302 1481 13285 1463 13270 1444 13258 1421 13246 1396 13237 1369 13231 1342 13227 1314 13227 1286 13230 1258 13236 1230 13244 1203 13255 1178 13269 1154 13285 1132 13304 1112 13325 1095 13349 1080 13376 1069 13404 1062ZM18695 1059L18721 1056 18747 1057 18772 1060 18797 1066 18821 1074 18844 1085 18865 1098 18885 1113 18903 1130 18919 1149 18933 1169 18945 1191 18954 1215 18959 1240 18962 1266 18961 1293 18963 1310 18963 1326 18962 1343 18960 1359 18952 1389 18939 1418 18922 1444 18901 1468 18878 1489 18852 1507 18824 1522 18794 1533 18763 1540 18731 1543 18699 1542 18668 1537 18637 1526 18608 1511 18590 1501 18574 1491 18559 1478 18545 1465 18533 1451 18522 1435 18513 1419 18505 1402 18494 1365 18487 1328 18486 1289 18490 1250 18500 1213 18514 1178 18532 1145 18544 1130 18556 1116 18570 1104 18584 1093 18600 1083 18617 1074 18635 1068 18654 1063 18674 1060 18695 1059ZM12213 1063L12244 1066 12275 1068 12340 1071 12355 1073 12371 1075 12386 1079 12401 1083 12415 1089 12429 1097 12442 1106 12454 1117 12458 1131 12460 1144 12461 1156 12460 1167 12459 1177 12456 1186 12453 1195 12448 1202 12443 1209 12436 1215 12429 1220 12421 1225 12403 1233 12384 1238 12362 1242 12340 1244 12293 1245 12209 1245 12213 1063ZM14076 1089L14104 1074 14134 1063 14165 1057 14196 1055 14228 1057 14260 1063 14290 1072 14319 1085 14346 1101 14371 1120 14393 1142 14411 1167 14426 1194 14432 1208 14436 1223 14440 1238 14442 1254 14442 1271 14442 1288 14444 1316 14442 1343 14437 1369 14428 1395 14417 1418 14403 1440 14387 1461 14368 1479 14347 1496 14325 1510 14301 1521 14276 1530 14250 1535 14223 1538 14196 1537 14169 1533 14148 1532 14129 1528 14111 1524 14094 1517 14078 1509 14062 1499 14048 1488 14035 1476 14023 1463 14012 1449 13994 1417 13980 1383 13971 1347 13966 1310 13967 1272 13972 1235 13982 1200 13998 1166 14007 1151 14018 1136 14031 1123 14044 1110 14059 1099 14076 1089ZM19240 1063L19483 1092 19474 1234 19235 1245 19240 1063ZM20880 1086L20912 1070 20945 1059 20978 1054 21012 1053 21045 1058 21077 1066 21108 1079 21138 1095 21164 1115 21188 1138 21209 1164 21226 1192 21238 1223 21246 1256 21247 1273 21248 1290 21247 1308 21244 1327 21241 1359 21233 1390 21221 1418 21205 1443 21185 1465 21163 1485 21138 1502 21110 1515 21082 1526 21052 1533 21021 1537 20990 1537 20959 1534 20929 1527 20901 1517 20873 1503 20860 1494 20848 1485 20826 1463 20808 1439 20793 1412 20781 1383 20772 1353 20767 1322 20766 1291 20768 1259 20773 1228 20782 1199 20795 1171 20811 1145 20830 1122 20841 1111 20853 1102 20866 1093 20880 1086ZM21521 1066L21647 1074 21678 1078 21709 1085 21724 1090 21739 1096 21753 1102 21767 1110 21773 1138 21774 1150 21774 1161 21772 1172 21770 1181 21766 1190 21762 1198 21756 1205 21750 1211 21743 1217 21735 1222 21718 1231 21698 1237 21677 1241 21654 1244 21607 1247 21521 1248 21521 1066ZM9927 1368L10049 1125 10157 1367 9927 1368ZM11599 1369L11714 1116 11828 1368 11599 1369ZM24036 1368L24152 1115 24263 1368 24036 1368Z" class="a"/></g><g class="com.sun.star.drawing.PolyPolygonShape"><path d="M2539 2082L2636 1928 2748 1784 2873 1650 3011 1529 3084 1474 3159 1423 3237 1376 3318 1333 3400 1295 3485 1262 3572 1233 3661 1210 3779 1187 3899 1176 4020 1177 4140 1188 4258 1211 4374 1245 4486 1289 4593 1343 4655 1382 4714 1425 4770 1471 4824 1520 4874 1572 4922 1626 5009 1742 5085 1866 5150 1997 5205 2132 5249 2270 5301 2502 5330 2737 5337 2974 5320 3211 5281 3445 5219 3674 5179 3786 5134 3896 5083 4003 5026 4107 4942 4248 4847 4383 4742 4510 4628 4629 4505 4738 4373 4836 4233 4922 4085 4995 3967 5044 3846 5084 3723 5117 3598 5143 3471 5162 3344 5176 3217 5185 3089 5189 3001 5480 2902 5768 2790 6051 2728 6189 2662 6326 2619 6405 2570 6481 2516 6552 2455 6619 2388 6679 2353 6707 2316 6733 2278 6757 2239 6778 2199 6798 2157 6815 2126 6826 2094 6835 2062 6842 2029 6847 1996 6850 1964 6851 1931 6850 1898 6846 1865 6841 1833 6834 1802 6825 1771 6813 1740 6800 1711 6785 1683 6768 1656 6749 1623 6725 1593 6698 1565 6669 1539 6639 1515 6607 1493 6573 1473 6539 1455 6503 1439 6466 1425 6428 1403 6351 1387 6272 1378 6192 1373 6116 1372 6039 1381 5888 1402 5737 1432 5588 1470 5441 1513 5294 1604 5003 2330 2616 2420 2344 2446 2276 2474 2210 2505 2145 2539 2082Z" class="c"/></g><g class="com.sun.star.drawing.PolyPolygonShape"><path d="M6855 682L6882 537 6890 501 6900 466 6907 449 6914 432 6922 416 6932 400 7056 393 7061 432 7064 470 7064 509 7062 548 7059 586 7053 625 7038 701 6908 1344 6933 1335 6959 1327 6985 1320 7012 1316 7039 1313 7066 1312 7093 1313 7119 1316 7145 1321 7170 1328 7194 1338 7217 1351 7239 1366 7259 1383 7277 1404 7294 1427 7309 1450 7321 1474 7332 1498 7340 1523 7350 1572 7353 1623 7352 1675 7346 1727 7328 1831 7309 1936 7302 1988 7300 2039 7302 2090 7311 2140 7318 2164 7328 2188 7339 2212 7353 2235 7396 2226 7439 2215 7482 2204 7525 2192 7512 2153 7500 2113 7491 2072 7484 2031 7479 1990 7476 1948 7475 1907 7477 1865 7480 1824 7486 1783 7494 1742 7504 1702 7517 1663 7532 1624 7549 1586 7569 1549 7600 1505 7617 1484 7636 1463 7655 1444 7676 1426 7697 1409 7720 1393 7743 1379 7767 1367 7792 1356 7818 1348 7844 1342 7871 1339 7899 1337 7927 1339 7952 1341 7976 1346 7999 1353 8021 1363 8042 1376 8062 1390 8080 1407 8097 1425 8112 1444 8126 1465 8137 1487 8146 1510 8153 1534 8157 1558 8159 1582 8158 1607 8159 1654 8155 1700 8147 1745 8135 1788 8119 1829 8100 1869 8077 1909 8053 1947 7997 2019 7936 2088 7808 2217 7878 2220 7913 2221 7948 2221 7983 2217 8000 2214 8017 2211 8033 2206 8050 2200 8066 2193 8082 2185 8108 2173 8132 2159 8155 2143 8176 2126 8197 2108 8217 2089 8253 2048 8286 2003 8318 1957 8376 1863 8506 1882 8509 1910 8509 1937 8506 1963 8500 1989 8492 2014 8482 2038 8470 2062 8456 2084 8424 2128 8389 2170 8314 2247 8280 2277 8243 2304 8205 2328 8165 2348 8123 2365 8080 2379 8036 2389 7992 2396 7947 2399 7902 2399 7857 2396 7812 2389 7768 2379 7725 2366 7683 2349 7642 2329 7583 2357 7553 2371 7523 2383 7492 2394 7460 2402 7444 2405 7428 2407 7412 2408 7395 2408 7366 2406 7337 2401 7310 2393 7284 2382 7258 2368 7235 2352 7213 2334 7193 2313 7174 2291 7158 2267 7145 2242 7134 2215 7125 2188 7120 2160 7118 2131 7119 2102 7117 2068 7118 2033 7124 1965 7148 1829 7160 1761 7168 1693 7170 1659 7170 1625 7167 1591 7162 1557 7156 1545 7150 1535 7143 1526 7136 1518 7128 1511 7120 1505 7112 1499 7103 1495 7093 1492 7084 1490 7074 1488 7064 1488 7044 1489 7024 1493 7003 1499 6983 1509 6964 1520 6947 1533 6930 1548 6916 1565 6904 1582 6894 1601 6876 1640 6860 1679 6834 1760 6788 1925 6763 2007 6733 2086 6714 2125 6694 2162 6671 2198 6644 2233 6619 2263 6591 2291 6560 2316 6526 2338 6490 2358 6453 2373 6415 2385 6376 2394 6337 2398 6298 2398 6259 2393 6222 2383 6186 2369 6152 2349 6121 2323 6092 2292 6054 2315 6015 2337 5975 2355 5934 2371 5892 2383 5849 2391 5805 2396 5783 2397 5761 2396 5756 2357 5753 2318 5750 2279 5749 2240 5832 2216 5874 2202 5915 2185 5934 2175 5952 2164 5970 2151 5986 2138 6001 2123 6015 2106 6027 2087 6038 2067 6060 2006 6078 1944 6092 1881 6104 1817 6148 1562 6039 1557 5984 1554 5929 1549 5924 1456 5924 1445 5926 1434 5929 1424 5931 1419 5933 1414 5936 1410 5939 1406 5943 1402 5947 1398 5952 1394 5957 1391 5969 1386 6025 1381 6082 1379 6196 1375 6210 1265 6229 1155 6241 1100 6255 1046 6271 993 6289 940 6434 956 6434 1009 6430 1063 6424 1115 6415 1168 6372 1377 6398 1380 6424 1381 6477 1383 6502 1386 6515 1389 6527 1393 6539 1397 6550 1403 6561 1410 6572 1419 6573 1436 6574 1452 6573 1485 6569 1551 6510 1555 6451 1558 6333 1562 6320 1644 6303 1727 6267 1892 6253 1974 6245 2057 6243 2099 6243 2141 6246 2183 6252 2225 6291 2227 6328 2224 6362 2216 6395 2204 6425 2187 6452 2166 6478 2143 6502 2116 6524 2087 6543 2056 6561 2024 6577 1991 6603 1922 6622 1855 6855 682ZM7784 1571L7793 1562 7803 1554 7814 1547 7825 1542 7836 1537 7848 1533 7859 1529 7872 1527 7896 1524 7921 1522 7972 1522 7980 1566 7983 1608 7981 1649 7975 1690 7964 1729 7949 1767 7931 1804 7910 1840 7885 1874 7859 1907 7830 1939 7800 1969 7736 2025 7671 2074 7663 2009 7659 1941 7660 1874 7663 1840 7668 1807 7674 1774 7683 1742 7693 1711 7706 1680 7721 1651 7739 1623 7760 1596 7784 1571Z" fill="rgb(7,5,7)"/></g><g class="com.sun.star.drawing.PolyPolygonShape"><path d="M3616 2805L3641 2787 3665 2768 3687 2747 3707 2725 3746 2678 3782 2628 3853 2526 3891 2477 3911 2455 3933 2433 3972 2435 3993 2436 4010 2437 4028 2484 4044 2531 4071 2627 4094 2724 4114 2822 4227 2853 4341 2881 4454 2909 4567 2941 4550 2971 4531 2998 4511 3024 4488 3049 4439 3094 4387 3135 4276 3214 4221 3254 4170 3297 4166 3412 4159 3528 4147 3643 4139 3700 4129 3757 4099 3756 4071 3751 4043 3744 4017 3734 3991 3723 3966 3710 3918 3680 3823 3615 3774 3585 3748 3572 3722 3561 3691 3567 3660 3575 3601 3595 3484 3645 3425 3669 3366 3691 3335 3700 3305 3707 3274 3713 3242 3716 3243 3685 3247 3654 3253 3624 3261 3594 3281 3536 3304 3478 3351 3364 3371 3305 3378 3275 3384 3245 3361 3205 3337 3167 3311 3130 3283 3094 3171 2951 3178 2858 3232 2846 3287 2838 3397 2828 3507 2820 3562 2814 3616 2805Z" class="b"/></g><g class="com.sun.star.drawing.PolyPolygonShape"><path d="M5510 2912L5571 2884 5632 2860 5696 2839 5760 2821 5825 2806 5890 2795 5956 2787 6023 2783 6089 2782 6155 2786 6221 2793 6286 2805 6350 2820 6413 2840 6476 2865 6536 2894 6587 2923 6636 2956 6681 2992 6725 3030 6765 3071 6803 3115 6839 3161 6872 3209 6931 3309 6981 3415 7023 3524 7056 3635 7099 3830 7124 4027 7135 4226 7130 4425 7112 4624 7081 4821 7038 5016 6984 5208 6909 5414 6820 5616 6718 5812 6603 6000 6472 6178 6327 6343 6248 6420 6166 6493 6080 6561 5989 6626 5859 6705 5721 6771 5650 6799 5577 6824 5504 6844 5429 6861 5354 6873 5278 6882 5202 6886 5126 6885 5050 6880 4975 6869 4899 6854 4825 6834 4774 6818 4725 6799 4677 6777 4631 6751 4587 6723 4545 6692 4505 6658 4467 6622 4430 6584 4396 6544 4364 6502 4334 6458 4281 6367 4237 6272 4212 6206 4190 6139 4157 6003 4135 5866 4124 5726 4121 5586 4124 5445 4143 5165 4300 5086 4448 4995 4588 4893 4720 4780 4842 4658 4954 4526 5057 4387 5151 4240 5234 4087 5306 3928 5369 3765 5420 3599 5460 3429 5488 3257 5505 3085 5510 2912Z" class="c"/></g><g class="com.sun.star.drawing.PolyPolygonShape"><path d="M8737 2918L8767 2896 8798 2875 8831 2856 8864 2839 8899 2824 8935 2811 8972 2801 9009 2793 9046 2788 9084 2786 9121 2787 9158 2791 9195 2798 9230 2809 9266 2823 9299 2841 9329 2861 9356 2884 9380 2909 9402 2936 9421 2964 9438 2994 9453 3026 9466 3058 9477 3092 9485 3126 9497 3196 9503 3266 9502 3335 9503 3385 9501 3435 9490 3533 9453 3729 9434 3827 9421 3926 9417 3975 9416 4025 9419 4075 9424 4125 9448 4100 9470 4073 9491 4046 9511 4017 9530 3988 9547 3958 9563 3928 9576 3896 9678 3664 9788 3434 9850 3324 9917 3217 9992 3115 10076 3019 10126 2970 10180 2925 10237 2884 10298 2850 10330 2835 10362 2822 10395 2811 10429 2802 10463 2795 10498 2790 10533 2788 10568 2788 10592 2789 10615 2790 10638 2793 10661 2797 10684 2803 10707 2809 10729 2817 10750 2827 10771 2837 10791 2849 10811 2862 10829 2877 10847 2892 10863 2909 10879 2927 10892 2946 10911 2974 10926 3003 10940 3032 10951 3062 10960 3093 10968 3125 10977 3189 10981 3254 10980 3320 10976 3385 10969 3449 10948 3566 10921 3681 10887 3795 10849 3907 10806 4017 10759 4126 10655 4339 10385 4851 10098 5353 9788 5841 9622 6078 9449 6310 9315 6468 9244 6544 9170 6618 9092 6686 9010 6748 8966 6777 8922 6803 8875 6826 8827 6847 8796 6859 8763 6869 8730 6876 8696 6882 8662 6885 8627 6885 8593 6883 8559 6879 8526 6871 8494 6862 8463 6849 8433 6833 8405 6815 8379 6793 8355 6769 8333 6741 8310 6703 8289 6663 8271 6622 8256 6580 8233 6494 8216 6406 8172 6049 8147 6075 8124 6102 8103 6131 8083 6160 8047 6222 8015 6285 7951 6414 7916 6476 7876 6535 7827 6603 7772 6669 7710 6731 7678 6759 7644 6785 7608 6809 7571 6830 7533 6848 7494 6863 7454 6874 7412 6881 7369 6884 7324 6882 7292 6879 7261 6874 7231 6865 7202 6854 7174 6841 7147 6825 7121 6807 7096 6787 7073 6766 7052 6743 7031 6719 7012 6693 6995 6667 6979 6639 6965 6611 6952 6582 6925 6504 6902 6425 6883 6344 6868 6262 6858 6179 6852 6096 6851 6013 6855 5931 6991 5656 7052 5516 7108 5373 7158 5229 7201 5082 7237 4933 7263 4781 7291 4585 7306 4386 7308 4187 7296 3987 7269 3790 7225 3597 7163 3408 7125 3316 7081 3225 7066 3191 7059 3173 7056 3164 7053 3155 7051 3146 7050 3137 7050 3128 7051 3119 7053 3110 7056 3101 7060 3093 7066 3084 7107 3025 7154 2969 7180 2943 7207 2918 7235 2895 7264 2873 7295 2854 7327 2837 7360 2822 7394 2810 7428 2801 7464 2795 7501 2792 7538 2793 7575 2792 7611 2795 7646 2802 7680 2812 7712 2825 7743 2842 7772 2861 7800 2883 7826 2908 7849 2934 7871 2963 7890 2993 7907 3024 7922 3057 7934 3091 7942 3125 7960 3186 7972 3248 7979 3310 7983 3372 7981 3496 7971 3620 7947 3870 7944 3995 7947 4057 7953 4119 7996 4073 8034 4024 8068 3971 8099 3917 8210 3692 8315 3481 8371 3376 8431 3274 8497 3177 8569 3084 8649 2997 8692 2957 8737 2918Z" class="c"/></g><g class="com.sun.star.drawing.PolyPolygonShape"><path d="M11113 2981L11180 2941 11248 2906 11318 2876 11390 2851 11463 2830 11537 2814 11688 2791 11841 2780 11995 2777 12301 2786 12397 2798 12495 2814 12592 2835 12687 2864 12778 2900 12822 2922 12865 2946 12905 2973 12944 3003 12981 3036 13015 3071 13047 3131 13071 3194 13087 3260 13095 3327 13096 3395 13090 3463 13077 3531 13057 3596 13031 3660 12999 3720 12961 3777 12917 3829 12868 3875 12813 3915 12754 3948 12690 3973 12647 3986 12604 3997 12516 4012 12427 4021 12338 4025 12159 4028 12070 4030 11981 4034 11989 4051 11998 4072 12017 4109 12078 4131 12140 4149 12265 4184 12327 4205 12386 4230 12415 4245 12443 4261 12469 4280 12495 4301 12521 4323 12545 4347 12566 4372 12585 4400 12602 4428 12617 4458 12629 4489 12639 4520 12647 4553 12653 4586 12657 4619 12658 4653 12658 4686 12655 4720 12651 4753 12644 4785 12634 4839 12620 4893 12604 4947 12584 5000 12562 5052 12537 5102 12508 5151 12477 5198 12443 5242 12407 5284 12367 5322 12324 5358 12279 5389 12231 5416 12180 5439 12126 5457 12055 5469 11983 5478 11839 5488 11694 5498 11623 5505 11551 5515 11569 5535 11588 5552 11608 5567 11629 5579 11652 5589 11675 5597 11724 5610 11825 5628 11874 5640 11899 5647 11922 5655 11952 5665 11980 5677 12008 5691 12034 5707 12060 5724 12083 5744 12106 5765 12126 5788 12145 5813 12162 5838 12177 5865 12189 5893 12199 5922 12207 5952 12211 5983 12213 6014 12218 6067 12218 6121 12215 6174 12208 6227 12198 6280 12183 6331 12165 6382 12144 6431 12119 6478 12091 6524 12060 6567 12026 6607 11988 6645 11947 6679 11904 6710 11857 6737 11801 6766 11744 6792 11686 6814 11626 6833 11505 6862 11381 6880 11256 6888 11130 6889 11005 6884 10881 6873 10791 6859 10700 6840 10611 6815 10524 6783 10482 6764 10442 6743 10402 6720 10365 6694 10329 6666 10295 6635 10263 6602 10233 6565 10201 6523 10173 6479 10148 6433 10126 6386 10107 6338 10091 6289 10077 6238 10067 6187 10052 6084 10045 5979 10046 5874 10053 5771 10076 5722 10101 5674 10157 5581 10215 5489 10271 5396 10590 4831 10742 4545 10888 4255 10955 4106 11016 3952 11069 3794 11111 3634 11140 3472 11148 3391 11151 3309 11150 3227 11143 3145 11131 3063 11113 2981Z" class="c"/></g><g class="com.sun.star.drawing.PolyPolygonShape"><path d="M13225 3071L13272 3031 13321 2993 13372 2960 13424 2929 13478 2901 13534 2876 13649 2835 13768 2804 13889 2782 14011 2769 14133 2763 14263 2772 14393 2788 14523 2814 14649 2849 14711 2871 14771 2896 14830 2924 14886 2955 14941 2990 14994 3029 15044 3071 15091 3118 15132 3160 15171 3205 15206 3251 15238 3300 15267 3350 15293 3402 15316 3456 15336 3511 15353 3566 15367 3623 15387 3738 15396 3855 15393 3972 15392 4047 15385 4121 15373 4193 15356 4264 15333 4334 15306 4401 15275 4468 15239 4532 15200 4594 15158 4655 15063 4769 14959 4873 14847 4968 14803 5002 14762 5037 14722 5075 14686 5116 14652 5159 14623 5205 14610 5229 14599 5254 14588 5280 14579 5306 14784 6336 14795 6442 14798 6497 14798 6552 14796 6579 14793 6605 14787 6631 14779 6656 14769 6681 14756 6704 14741 6726 14722 6747 14698 6771 14672 6793 14644 6812 14615 6829 14585 6843 14554 6855 14522 6865 14490 6873 14456 6879 14423 6883 14355 6886 14287 6883 14221 6874 14194 6867 14168 6859 14143 6849 14118 6838 14094 6825 14071 6811 14048 6796 14026 6780 13985 6744 13947 6704 13913 6662 13882 6617 13831 6535 13787 6450 13748 6363 13712 6274 13645 6093 13574 5915 13494 5925 13442 6031 13393 6141 13297 6360 13242 6465 13181 6566 13146 6614 13109 6660 13068 6703 13024 6744 12981 6779 12933 6809 12882 6834 12829 6852 12774 6865 12718 6872 12661 6874 12605 6870 12549 6861 12495 6845 12444 6825 12395 6798 12350 6766 12309 6728 12274 6684 12244 6635 12248 6619 12252 6603 12263 6571 12277 6540 12292 6510 12321 6448 12334 6417 12345 6385 12359 6337 12371 6287 12381 6236 12387 6185 12390 6133 12391 6082 12388 6030 12382 5979 12373 5929 12360 5879 12344 5831 12323 5784 12300 5739 12272 5696 12240 5656 12204 5618 12252 5600 12299 5580 12344 5557 12388 5531 12430 5502 12470 5471 12508 5438 12544 5403 12579 5365 12611 5326 12640 5285 12668 5242 12693 5197 12715 5152 12735 5104 12752 5056 12785 4945 12808 4830 12816 4771 12821 4713 12823 4654 12821 4595 12816 4537 12807 4480 12793 4424 12775 4369 12752 4316 12724 4265 12691 4216 12653 4170 12728 4145 12802 4114 12872 4077 12939 4034 13002 3986 13031 3959 13059 3931 13085 3901 13109 3870 13131 3837 13152 3802 13174 3760 13194 3717 13211 3673 13226 3629 13238 3583 13248 3537 13262 3444 13266 3350 13261 3256 13247 3163 13225 3071Z" class="c"/></g><g class="com.sun.star.drawing.PolyPolygonShape"><path d="M16444 2807L16521 2790 16598 2778 16677 2769 16756 2765 16835 2764 16914 2768 16992 2776 17070 2789 17147 2805 17224 2826 17298 2851 17371 2880 17442 2914 17511 2952 17578 2994 17641 3040 17692 3085 17740 3132 17785 3182 17826 3234 17864 3289 17899 3345 17961 3463 18013 3587 18056 3715 18090 3844 18116 3974 18143 4212 18148 4452 18131 4690 18093 4926 18034 5158 17954 5383 17854 5601 17733 5807 17653 5926 17564 6038 17467 6143 17362 6241 17251 6330 17132 6410 17007 6481 16877 6541 16763 6586 16646 6623 16527 6653 16406 6676 16284 6694 16162 6705 16039 6712 15916 6714 15659 7294 15523 7579 15376 7859 15340 7922 15300 7983 15256 8042 15208 8097 15156 8148 15101 8195 15041 8237 15010 8255 14977 8272 14928 8294 14876 8311 14823 8323 14769 8330 14714 8332 14659 8329 14605 8321 14552 8308 14500 8291 14450 8269 14402 8243 14357 8213 14316 8178 14279 8138 14246 8095 14217 8047 14192 7989 14172 7929 14156 7869 14145 7807 14139 7746 14136 7683 14141 7557 14156 7431 14180 7306 14240 7061 14318 7061 14397 7057 14476 7049 14553 7034 14591 7024 14628 7012 14664 6998 14699 6981 14733 6962 14766 6940 14797 6916 14826 6888 14846 6870 14864 6851 14880 6831 14896 6809 14910 6787 14922 6765 14933 6741 14943 6717 14952 6692 14959 6667 14964 6642 14969 6616 14972 6590 14973 6564 14974 6538 14972 6511 14959 6354 14936 6199 14873 5889 14810 5580 14786 5425 14772 5268 15124 4952 15207 4867 15284 4778 15353 4682 15384 4632 15412 4579 15447 4514 15476 4447 15501 4379 15522 4310 15539 4240 15552 4169 15567 4025 15569 3879 15559 3734 15540 3589 15511 3447 15601 3335 15700 3229 15807 3131 15921 3043 16043 2965 16171 2899 16237 2871 16305 2846 16374 2825 16444 2807Z" class="c"/></g><g class="com.sun.star.drawing.PolyPolygonShape"><path d="M18137 3387L18191 3281 18255 3180 18291 3132 18330 3085 18370 3041 18413 2999 18458 2960 18506 2923 18555 2890 18606 2860 18660 2834 18715 2813 18772 2795 18831 2782 18873 2774 18915 2768 18958 2766 19002 2767 19045 2771 19087 2777 19130 2787 19171 2799 19211 2815 19249 2833 19286 2855 19322 2879 19354 2906 19385 2937 19412 2970 19437 3006 19459 3042 19477 3080 19492 3118 19504 3158 19513 3198 19519 3239 19522 3280 19524 3322 19521 3406 19512 3490 19498 3572 19481 3653 19414 3932 19337 4208 19174 4757 19094 5028 19075 5096 19059 5165 19046 5234 19037 5304 19113 5296 19163 5208 19208 5117 19228 5071 19247 5024 19264 4977 19279 4929 19476 4308 19571 3996 19658 3682 19711 3500 19739 3409 19771 3319 19809 3232 19853 3149 19878 3109 19905 3071 19935 3034 19968 2999 20006 2961 20047 2927 20091 2896 20137 2869 20185 2846 20234 2826 20285 2810 20337 2797 20390 2788 20443 2783 20497 2780 20550 2782 20604 2787 20656 2795 20708 2807 20759 2823 20785 2833 20810 2845 20833 2859 20855 2875 20876 2892 20896 2911 20914 2932 20931 2953 20947 2975 20961 2999 20974 3023 20986 3048 20996 3073 21005 3099 21019 3152 21032 3236 21038 3320 21037 3405 21030 3489 21018 3573 21002 3656 20983 3739 20960 3820 20806 4348 20634 4871 20437 5385 20327 5637 20209 5886 20134 6025 20050 6161 19955 6291 19851 6412 19795 6469 19737 6523 19676 6573 19612 6620 19545 6663 19476 6701 19403 6736 19328 6765 19189 6805 19046 6833 18902 6849 18756 6853 18611 6846 18466 6827 18324 6798 18185 6758 18138 6741 18093 6721 18049 6698 18007 6673 17967 6645 17928 6615 17891 6583 17856 6549 17791 6475 17734 6396 17683 6311 17640 6223 17747 6092 17845 5954 17935 5811 18016 5663 18088 5510 18150 5353 18204 5193 18247 5030 18281 4865 18304 4697 18318 4529 18321 4361 18314 4192 18296 4024 18267 3858 18227 3693 18216 3655 18204 3617 18175 3541 18162 3503 18150 3465 18142 3426 18139 3407 18137 3387Z" class="c"/></g><g class="com.sun.star.drawing.PolyPolygonShape"><path d="M21553 2849L21663 2820 21775 2799 21888 2787 22001 2780 22230 2779 22458 2784 22644 2805 22739 2822 22831 2844 22876 2859 22920 2875 22963 2894 23004 2916 23044 2940 23082 2967 23119 2998 23153 3033 23169 3050 23183 3068 23197 3086 23209 3106 23220 3126 23229 3147 23237 3168 23244 3190 23255 3235 23261 3280 23264 3327 23263 3373 23261 3422 23255 3472 23245 3521 23233 3569 23216 3616 23197 3662 23174 3707 23148 3749 23119 3790 23087 3827 23052 3863 23015 3895 22975 3923 22932 3948 22886 3969 22839 3986 22751 4008 22662 4024 22572 4036 22482 4045 22121 4073 22123 4154 22290 4180 22377 4193 22461 4212 22502 4224 22542 4238 22580 4256 22616 4276 22650 4300 22681 4328 22709 4360 22735 4398 22770 4469 22796 4543 22813 4620 22821 4698 22822 4777 22814 4856 22799 4934 22776 5010 22746 5084 22709 5155 22666 5221 22616 5282 22560 5338 22499 5387 22432 5428 22360 5462 22320 5472 22281 5481 22201 5492 22120 5497 22039 5499 21877 5498 21796 5500 21716 5506 21590 5913 21521 6115 21444 6314 21412 6382 21377 6450 21339 6516 21297 6580 21251 6640 21199 6696 21172 6722 21143 6746 21112 6769 21081 6791 21030 6818 20976 6840 20921 6855 20864 6865 20806 6868 20749 6866 20691 6858 20635 6845 20580 6826 20528 6802 20478 6773 20432 6739 20391 6700 20354 6656 20323 6607 20298 6554 20264 6462 20249 6414 20236 6366 20231 6341 20228 6317 20226 6293 20226 6268 20228 6244 20233 6220 20239 6197 20249 6174 20373 5941 20487 5703 20593 5462 20691 5217 20867 4720 21026 4218 21111 3921 21151 3772 21186 3622 21199 3552 21207 3481 21211 3410 21211 3339 21205 3197 21194 3056 21277 2993 21320 2964 21364 2936 21409 2910 21455 2886 21503 2866 21553 2849Z" class="c"/></g><g class="com.sun.star.drawing.PolyPolygonShape"><path d="M23764 2820L23900 2798 24037 2782 24174 2773 24311 2770 24449 2774 24586 2784 24723 2801 24859 2824 24936 2843 25013 2869 25050 2885 25086 2902 25122 2922 25156 2943 25188 2966 25219 2992 25247 3020 25273 3049 25297 3081 25318 3115 25335 3152 25350 3190 25363 3249 25370 3309 25372 3370 25368 3431 25358 3491 25344 3550 25325 3608 25300 3664 25271 3718 25238 3769 25200 3816 25158 3859 25112 3898 25062 3932 25008 3961 24951 3983 24863 4006 24775 4023 24685 4035 24595 4044 24234 4071 24232 4153 24401 4181 24488 4195 24574 4214 24615 4227 24655 4242 24693 4260 24729 4281 24763 4305 24794 4334 24822 4368 24846 4406 24878 4477 24902 4551 24917 4627 24924 4704 24924 4782 24916 4860 24901 4937 24879 5012 24849 5085 24813 5154 24771 5219 24723 5280 24668 5335 24608 5383 24542 5425 24471 5458 24432 5470 24392 5479 24312 5491 24231 5497 24150 5498 23987 5496 23906 5497 23825 5501 23673 5979 23589 6215 23541 6330 23486 6443 23451 6505 23412 6566 23369 6624 23322 6678 23270 6727 23242 6750 23214 6771 23184 6790 23152 6808 23120 6823 23086 6836 23040 6850 22993 6860 22946 6866 22897 6868 22849 6865 22801 6859 22754 6849 22708 6834 22663 6816 22620 6795 22580 6769 22542 6741 22507 6708 22475 6672 22447 6633 22423 6591 22402 6550 22385 6507 22370 6464 22358 6420 22340 6331 22331 6240 22328 6148 22330 6056 22341 5874 22365 5715 22370 5696 22377 5678 22386 5662 22396 5646 22408 5632 22423 5620 22441 5610 22462 5602 22555 5553 22641 5492 22718 5422 22787 5343 22846 5257 22896 5164 22936 5067 22966 4966 22985 4863 22993 4759 22990 4655 22974 4552 22947 4452 22907 4356 22854 4265 22788 4180 22881 4157 22969 4123 23050 4078 23125 4024 23194 3961 23255 3890 23308 3814 23352 3731 23388 3645 23415 3555 23432 3463 23439 3370 23436 3277 23422 3185 23396 3095 23358 3008 23404 2976 23452 2945 23501 2917 23551 2891 23602 2868 23655 2849 23709 2832 23764 2820Z" class="c"/></g><g class="com.sun.star.drawing.PolyPolygonShape"><path d="M14166 4001L14169 3989 14173 3978 14178 3968 14183 3958 14190 3948 14196 3939 14204 3930 14211 3921 14228 3905 14246 3890 14265 3877 14285 3864 14298 3900 14307 3937 14312 3974 14314 4010 14313 4047 14310 4084 14304 4121 14295 4157 14273 4229 14245 4300 14181 4435 14174 4450 14165 4464 14156 4478 14146 4491 14135 4502 14124 4513 14112 4522 14099 4531 14085 4539 14071 4545 14056 4551 14041 4555 14025 4558 14009 4559 13992 4560 13975 4559 13993 4487 14014 4417 14065 4278 14118 4140 14143 4071 14166 4001Z" class="b"/></g><g class="com.sun.star.drawing.PolyPolygonShape"><path d="M16386 4414L16416 4397 16444 4377 16468 4353 16491 4326 16533 4267 16572 4206 16613 4147 16635 4120 16659 4096 16685 4075 16715 4059 16731 4052 16747 4047 16765 4043 16784 4040 16900 4445 17123 4494 17178 4508 17233 4524 17287 4542 17340 4564 17321 4591 17300 4616 17277 4640 17254 4663 17204 4706 17152 4746 17046 4823 16995 4864 16947 4909 16934 5025 16926 5142 16916 5258 16908 5316 16898 5374 16868 5369 16840 5363 16812 5354 16785 5344 16733 5319 16683 5289 16585 5223 16536 5191 16487 5160 16252 5258 16193 5280 16133 5301 16072 5319 16010 5333 16013 5301 16017 5270 16031 5208 16050 5148 16072 5089 16121 4972 16145 4913 16166 4854 16150 4831 16133 4808 16095 4762 16056 4717 16019 4671 16001 4647 15986 4623 15972 4598 15961 4572 15952 4545 15947 4518 15945 4488 15947 4458 16167 4441 16277 4431 16331 4423 16386 4414Z" class="b"/></g><g class="com.sun.star.drawing.PolyPolygonShape"><path d="M5791 4402L5925 4414 5928 4460 5929 4505 5923 4595 5910 4684 5889 4773 5863 4859 5831 4944 5794 5027 5754 5108 5741 5131 5726 5152 5710 5172 5692 5191 5674 5209 5655 5226 5615 5259 5534 5207 5541 5173 5550 5140 5559 5107 5570 5074 5595 5010 5622 4947 5650 4881 5673 4814 5712 4676 5748 4538 5768 4470 5791 4402Z" class="b"/></g><g class="com.sun.star.drawing.PolyPolygonShape"><path d="M10527 7702L10558 7672 10592 7646 10628 7622 10665 7601 10705 7584 10745 7570 10787 7559 10829 7552 10871 7549 10914 7548 10956 7552 10998 7559 11039 7570 11080 7584 11118 7603 11155 7625 11177 7642 11197 7662 11215 7682 11230 7705 11244 7728 11255 7753 11264 7779 11271 7806 11276 7833 11279 7860 11281 7888 11280 7916 11278 7944 11274 7971 11269 7998 11262 8024 11171 8345 11071 8664 10975 8983 10931 9144 10893 9306 11144 9371 11205 9391 11264 9415 11293 9430 11320 9446 11347 9464 11373 9484 11396 9506 11417 9530 11434 9556 11448 9583 11459 9612 11468 9642 11474 9672 11478 9703 11479 9735 11477 9766 11474 9798 11468 9829 11460 9860 11451 9890 11439 9918 11426 9946 11406 9983 11384 10018 11359 10051 11331 10081 11301 10109 11270 10135 11236 10159 11201 10181 11164 10200 11126 10218 11087 10233 11048 10246 11007 10256 10967 10265 10926 10272 10885 10276 10646 10282 10525 10279 10406 10269 10288 10250 10230 10236 10173 10219 10117 10199 10062 10175 10009 10147 9957 10115 9958 10045 9955 9976 9950 9906 9941 9837 9919 9700 9891 9563 9885 9529 9881 9495 9878 9460 9878 9425 9880 9390 9884 9355 9889 9320 9897 9286 9907 9253 9920 9220 9934 9188 9951 9158 9970 9129 9991 9102 10014 9076 10040 9052 10087 9008 10130 8961 10170 8910 10206 8858 10239 8802 10268 8745 10293 8686 10314 8626 10332 8564 10346 8501 10356 8438 10361 8373 10363 8309 10360 8245 10353 8181 10342 8118 10335 8087 10331 8057 10332 8028 10335 7999 10342 7970 10352 7943 10363 7916 10377 7890 10393 7864 10410 7839 10448 7791 10527 7702Z" class="d"/></g><g class="com.sun.star.drawing.PolyPolygonShape"><path d="M5058 8516L5115 8399 5182 8287 5258 8180 5343 8079 5436 7985 5536 7899 5643 7820 5755 7751 5872 7691 5993 7642 6118 7603 6245 7576 6375 7562 6505 7560 6636 7572 6767 7599 6854 7623 6941 7653 7026 7691 7066 7713 7106 7737 7143 7763 7179 7791 7212 7822 7243 7855 7272 7890 7297 7928 7318 7969 7337 8012 7350 8045 7360 8079 7368 8114 7372 8150 7374 8186 7373 8222 7369 8257 7362 8293 7353 8327 7341 8360 7326 8393 7308 8423 7287 8452 7264 8479 7238 8504 7210 8526 7189 8539 7168 8551 7146 8561 7123 8569 7100 8575 7076 8580 7052 8583 7028 8586 6979 8587 6930 8585 6834 8577 6804 8568 6775 8557 6719 8530 6609 8467 6554 8437 6526 8424 6498 8413 6468 8403 6438 8396 6407 8391 6375 8390 6343 8388 6312 8388 6281 8390 6250 8394 6219 8400 6189 8408 6160 8417 6131 8429 6103 8442 6076 8457 6049 8474 6024 8492 6000 8512 5977 8533 5955 8555 5935 8579 5885 8645 5840 8716 5802 8791 5771 8868 5758 8908 5747 8948 5739 8989 5733 9030 5730 9072 5730 9113 5732 9155 5738 9197 5743 9226 5751 9253 5762 9280 5775 9306 5791 9330 5808 9353 5827 9374 5848 9394 5870 9413 5894 9429 5919 9444 5945 9457 5971 9468 5999 9477 6026 9484 6055 9489 6074 9491 6094 9492 6113 9491 6132 9489 6151 9487 6170 9483 6207 9473 6244 9461 6280 9446 6351 9416 6366 9343 6341 9337 6316 9332 6266 9326 6164 9321 6113 9317 6064 9309 6040 9303 6016 9295 5993 9286 5971 9274 5954 9258 5940 9241 5927 9223 5917 9204 5908 9184 5901 9163 5896 9142 5892 9120 5890 9098 5889 9075 5889 9053 5890 9030 5893 9008 5897 8986 5908 8944 5917 8920 5929 8897 5943 8877 5958 8858 5976 8841 5995 8826 6015 8812 6036 8800 6059 8789 6082 8780 6106 8773 6130 8766 6155 8762 6180 8758 6229 8755 6938 8757 6976 8760 6996 8762 7015 8766 7034 8771 7053 8777 7071 8784 7088 8792 7105 8801 7121 8812 7136 8824 7150 8837 7163 8851 7174 8867 7184 8884 7193 8903 7199 8933 7203 8962 7204 8992 7204 9021 7201 9050 7197 9079 7183 9137 7165 9194 7145 9250 7103 9361 7065 9456 7022 9550 6975 9641 6923 9729 6864 9814 6799 9893 6728 9966 6689 10000 6649 10032 6594 10071 6536 10107 6477 10140 6416 10169 6353 10195 6290 10217 6225 10237 6159 10252 6092 10265 6024 10273 5957 10279 5889 10281 5821 10279 5753 10274 5686 10265 5620 10253 5571 10241 5524 10225 5478 10207 5433 10186 5389 10163 5347 10137 5307 10109 5268 10078 5231 10045 5196 10010 5163 9973 5132 9935 5103 9894 5077 9852 5054 9808 5033 9763 5004 9688 4979 9612 4960 9534 4944 9456 4933 9377 4925 9298 4923 9138 4936 8979 4963 8821 5004 8666 5058 8516Z" class="d"/></g><g class="com.sun.star.drawing.PolyPolygonShape"><path d="M7572 7952L7592 7911 7614 7872 7639 7833 7667 7796 7697 7762 7729 7729 7764 7699 7800 7671 7838 7645 7878 7623 7919 7604 7961 7588 8005 7576 8050 7568 8095 7564 8142 7563 8195 7572 8248 7584 8274 7592 8300 7602 8324 7613 8349 7625 8371 7639 8393 7655 8413 7672 8431 7691 8448 7712 8462 7734 8474 7759 8484 7785 8494 7821 8502 7857 8507 7894 8510 7930 8511 7966 8509 8003 8502 8076 8490 8149 8473 8222 8433 8363 7913 9890 7892 9944 7868 9997 7840 10048 7808 10096 7791 10119 7772 10140 7752 10161 7731 10181 7709 10199 7685 10215 7660 10230 7634 10243 7599 10260 7563 10275 7526 10286 7487 10296 7448 10302 7408 10306 7368 10306 7329 10304 7290 10298 7251 10289 7215 10277 7179 10262 7146 10242 7115 10220 7086 10193 7060 10162 7039 10130 7020 10096 7012 10078 7004 10059 6998 10040 6993 10022 6989 10003 6987 9984 6987 9965 6990 9947 6994 9929 7002 9911 7012 9895 7025 9878 7081 9791 7134 9701 7182 9608 7225 9514 7265 9417 7301 9320 7334 9221 7363 9120 7369 9093 7374 9065 7376 9037 7377 9009 7376 8981 7374 8953 7370 8926 7364 8899 7357 8872 7348 8846 7338 8820 7327 8795 7300 8745 7269 8698 7335 8645 7367 8617 7397 8587 7425 8556 7450 8522 7472 8486 7481 8467 7490 8447 7502 8418 7512 8388 7518 8357 7523 8326 7527 8263 7528 8199 7530 8136 7535 8073 7540 8042 7548 8012 7558 7982 7572 7952Z" class="d"/></g><g class="com.sun.star.drawing.PolyPolygonShape"><path d="M8684 7870L8713 7836 8743 7804 8776 7775 8810 7747 8845 7721 8882 7698 8920 7677 8959 7657 9000 7640 9041 7626 9083 7613 9125 7603 9168 7595 9212 7590 9256 7587 9300 7586 9355 7584 9410 7585 9465 7589 9521 7596 9575 7606 9629 7619 9682 7635 9734 7655 9785 7677 9834 7703 9880 7731 9925 7763 9968 7798 10007 7837 10044 7878 10078 7923 10110 7977 10137 8034 10158 8093 10174 8154 10184 8215 10190 8277 10190 8340 10186 8403 10176 8465 10163 8526 10144 8587 10121 8645 10094 8702 10063 8757 10028 8808 9989 8857 9958 8892 9924 8925 9889 8957 9853 8987 9779 9045 9706 9105 9699 9110 9693 9116 9688 9123 9682 9129 9678 9136 9674 9143 9670 9151 9667 9159 9664 9166 9662 9175 9659 9191 9657 9208 9657 9225 9669 9336 9689 9447 9740 9668 9762 9778 9777 9889 9780 9944 9781 10000 9777 10056 9770 10112 9748 10145 9722 10175 9692 10200 9660 10221 9624 10238 9587 10251 9549 10259 9509 10264 9469 10264 9430 10260 9391 10251 9353 10239 9318 10222 9285 10201 9254 10176 9228 10146 9207 10117 9188 10087 9154 10025 9124 9961 9098 9895 9008 9626 8944 9622 8878 9775 8842 9851 8805 9925 8763 9997 8716 10066 8664 10130 8636 10161 8606 10190 8579 10213 8550 10233 8518 10250 8484 10263 8450 10273 8414 10279 8378 10282 8342 10281 8306 10276 8271 10268 8238 10256 8207 10240 8178 10221 8151 10197 8128 10169 8109 10138 8100 10123 8092 10107 8086 10091 8081 10075 8077 10058 8074 10041 8073 10024 8072 10007 8072 9990 8074 9972 8079 9938 8088 9904 8099 9872 8581 8460 8625 8316 8643 8243 8659 8169 8671 8095 8679 8021 8684 7945 8684 7870Z" class="d"/></g><g class="com.sun.star.drawing.PolyPolygonShape"><path d="M11569 8449L11575 8369 11589 8291 11611 8215 11641 8143 11676 8073 11718 8007 11766 7945 11819 7887 11877 7832 11938 7783 12004 7737 12072 7698 12144 7663 12217 7634 12293 7610 12369 7593 12461 7581 12555 7577 12649 7581 12741 7594 12787 7603 12832 7616 12876 7630 12919 7647 12962 7666 13003 7688 13043 7712 13081 7739 13100 7754 13119 7769 13136 7786 13152 7804 13168 7822 13182 7841 13196 7861 13208 7882 13220 7903 13230 7925 13247 7970 13260 8017 13265 8040 13268 8064 13267 8097 13263 8131 13256 8163 13245 8195 13231 8226 13214 8255 13194 8282 13173 8308 13149 8332 13122 8353 13094 8371 13065 8386 13034 8398 13001 8406 12968 8411 12934 8411 12904 8411 12874 8409 12844 8405 12815 8400 12758 8385 12701 8366 12589 8324 12532 8305 12475 8288 12478 8295 12480 8302 12483 8317 12490 8347 12492 8355 12495 8362 12498 8369 12502 8375 12506 8381 12511 8387 12517 8392 12524 8396 12594 8440 12667 8481 12813 8564 12883 8609 12949 8660 12980 8687 13009 8717 13036 8749 13061 8783 13078 8808 13094 8833 13107 8859 13119 8885 13139 8940 13154 8996 13165 9054 13174 9112 13188 9228 13179 9319 13165 9411 13145 9501 13119 9589 13086 9674 13045 9756 13021 9796 12996 9834 12967 9871 12937 9906 12869 9979 12795 10044 12716 10102 12632 10153 12545 10196 12453 10232 12359 10260 12263 10280 12166 10293 12067 10298 11969 10295 11871 10284 11775 10265 11681 10237 11589 10202 11500 10158 11543 10091 11580 10019 11611 9944 11623 9906 11633 9867 11641 9828 11647 9789 11650 9749 11650 9709 11647 9670 11641 9630 11632 9591 11619 9552 11609 9524 11597 9498 11583 9472 11567 9448 11550 9425 11532 9403 11492 9361 11448 9323 11401 9288 11353 9256 11304 9225 11350 9198 11398 9173 11448 9151 11498 9133 11524 9126 11551 9121 11577 9117 11604 9115 11630 9114 11657 9116 11684 9120 11711 9126 11750 9132 11787 9141 11861 9163 11933 9191 12004 9223 12146 9285 12219 9311 12256 9322 12294 9331 12282 9297 12267 9266 12248 9238 12227 9213 12203 9191 12177 9171 12149 9152 12120 9135 12058 9103 11995 9074 11933 9044 11904 9027 11876 9010 11839 8989 11803 8966 11770 8939 11738 8911 11709 8880 11682 8847 11658 8812 11636 8776 11617 8738 11601 8699 11588 8659 11577 8618 11570 8577 11566 8534 11566 8492 11569 8449Z" class="d"/></g><g class="com.sun.star.drawing.PolyPolygonShape"><path d="M9371 8245L9428 8252 9456 8257 9470 8260 9484 8263 9487 8294 9488 8325 9487 8356 9484 8386 9479 8416 9473 8446 9456 8504 9433 8561 9406 8617 9374 8670 9340 8721 9207 8721 9371 8245Z" class="b"/></g><g class="com.sun.star.drawing.PolyPolygonShape"><path d="M13952 9253L13993 9209 14031 9163 14102 9066 14138 9017 14176 8971 14217 8928 14240 8907 14263 8888 14326 8933 14373 9104 14394 9190 14412 9276 14463 9293 14514 9308 14565 9322 14617 9333 14722 9353 14827 9368 14823 9421 14822 9434 14820 9447 14817 9460 14813 9473 14775 9510 14733 9544 14644 9606 14556 9668 14514 9701 14474 9738 14461 9848 14450 9958 14429 10177 14401 10176 14373 10173 14345 10167 14319 10159 14293 10149 14268 10137 14219 10110 14125 10046 14078 10014 14030 9985 13971 10006 13912 10030 13795 10079 13736 10101 13676 10119 13645 10125 13614 10130 13582 10133 13550 10134 13564 10080 13581 10028 13601 9976 13623 9926 13667 9824 13686 9773 13702 9720 13695 9693 13684 9667 13670 9642 13655 9618 13620 9571 13583 9526 13548 9479 13533 9455 13519 9429 13509 9403 13501 9376 13497 9347 13496 9316 13525 9308 13553 9302 13610 9294 13726 9285 13784 9282 13841 9276 13897 9267 13925 9261 13952 9253Z" fill="rgb(253,223,4)"/></g></g></g></g></g></svg>